<svg width="960" height="600" viewBox="0 0 960 600" fill="none" xmlns="http://www.w3.org/2000/svg">
  <rect width="960" height="600" rx="48" fill="#07110f"/>
  <path d="M0 0h960v600H0z" fill="url(#g)"/>
  <rect x="90" y="110" width="780" height="380" rx="30" fill="#0b1418" stroke="#fff" stroke-opacity=".16"/>
  <circle cx="478" cy="300" r="148" fill="#53e5ca" fill-opacity=".15"/>
  <circle cx="478" cy="300" r="104" fill="#53e5ca" fill-opacity=".16"/>
  <path d="M412 242c46-44 118-44 164 0M376 300c68-68 178-68 246 0M412 358c46 44 118 44 164 0" stroke="#d8fff8" stroke-opacity=".76" stroke-width="16" stroke-linecap="round"/>
  <rect x="122" y="412" width="230" height="34" rx="17" fill="#fff" fill-opacity=".88"/>
  <rect x="380" y="424" width="128" height="10" rx="5" fill="#fff" fill-opacity=".38"/>
  <rect x="528" y="424" width="224" height="10" rx="5" fill="#fff" fill-opacity=".16"/>
  <defs>
    <linearGradient id="g" x1="42" y1="37" x2="897" y2="556" gradientUnits="userSpaceOnUse">
      <stop stop-color="#173f38"/>
      <stop offset=".46" stop-color="#0b4d4d"/>
      <stop offset="1" stop-color="#05070a"/>
    </linearGradient>
  </defs>
</svg>
